<?xml version="1.0" encoding="UTF-8"?>
<svg version="1.1" xmlns="http://www.w3.org/2000/svg" width="200" height="200">
<path d="M0 0 C66 0 132 0 200 0 C200 66 200 132 200 200 C134 200 68 200 0 200 C0 134 0 68 0 0 Z " fill="#0C0907" transform="translate(0,0)"/>
<path d="M0 0 C17.82 0 35.64 0 54 0 C56.31 4.62 58.62 9.24 61 14 C67.42078527 21.55995685 75.77682403 28.01053144 85.97216797 29.23730469 C99.05279734 30.05915574 109.1552002 28.41462083 119.4375 19.6875 C125.64607612 13.68786635 128.60257559 7.92732363 132 0 C149.82 0 167.64 0 186 0 C183.91676373 24.99883525 173.10647442 46.37357126 154 63 C146.3200401 69.14061108 137.95121029 73.95356247 129 78 C127.90558594 78.50402344 126.81117188 79.00804687 125.68359375 79.52734375 C103.14994696 88.53602332 77.76099568 87.13386346 55.6875 77.75 C32.49580719 67.29625423 14.18215025 48.30321682 4.94995117 24.60693359 C1.94090024 16.4610707 0 8.68936644 0 0 Z " fill="#FDCA05" transform="translate(7,109)"/>
<path d="M0 0 C14.45304907 12.12335231 25.45021303 26.79016726 31.64892578 44.65771484 C32.01957153 45.70004272 32.01957153 45.70004272 32.39770508 46.76342773 C34.6116389 53.60728519 34.62396495 58.95822405 35.21142578 66.59521484 C17.39142578 66.59521484 -0.42857422 66.59521484 -18.78857422 66.59521484 C-19.77857422 63.29521484 -20.76857422 59.99521484 -21.78857422 56.59521484 C-26.77478829 46.43157495 -35.40380199 39.70442107 -45.78857422 35.59521484 C-49.13102028 34.66498559 -49.13102028 34.66498559 -52.78857422 34.59521484 C-53.75666016 34.53333984 -54.72474609 34.47146484 -55.72216797 34.40771484 C-67.93376537 33.94744262 -76.8247405 37.31417314 -85.78857422 45.59521484 C-91.97983402 51.579178 -95.10753789 58.19003319 -96.78857422 66.59521484 C-114.93857422 66.59521484 -133.08857422 66.59521484 -151.78857422 66.59521484 C-148.49806754 45.2069214 -142.69377468 27.63341196 -127.78857422 11.59521484 C-126.98419922 10.72251953 -126.17982422 9.84982422 -125.35107422 8.95068359 C-92.54703064 -25.23728057 -37.35552577 -29.33984374 0 0 Z " fill="#EC1C24" transform="translate(157.78857421875,25.40478515625)"/>
<path d="M0 0 C6.7849299 5.24077344 11.07329544 11.96264846 14 20 C14 21.65 14 23.3 14 25 C32.15 25 50.3 25 69 25 C69 30.61 69 36.22 69 42 C41.775 42.495 41.775 42.495 14 43 C12.68 46.3 11.36 49.6 10 53 C3.66066064 62.16355747 -5.25697965 68.96526897 -16 72 C-27.85137338 73.76423392 -38.97911742 72.17064999 -48.7421875 64.98046875 C-56.1907787 58.67016374 -60.91706475 52.24880574 -64 43 C-82.15 42.67 -100.3 42.34 -119 42 C-119 36.39 -119 30.78 -119 25 C-100.85 25 -82.7 25 -64 25 C-63.67 22.36 -63.34 19.72 -63 17 C-57.93829422 5.16104386 -48.36250202 -2.52877275 -36.6875 -7.375 C-23.07081195 -9.68291323 -11.47976034 -7.60788851 0 0 Z " fill="#FDFCFB" transform="translate(125,67)"/>
<path d="M0 0 C0.33 0 0.66 0 1 0 C1 29.04 1 58.08 1 88 C-28.04 88 -57.08 88 -87 88 C-87 87.67 -87 87.34 -87 87 C-86.13761719 86.87625 -85.27523437 86.7525 -84.38671875 86.625 C-59.36011301 82.39664 -35.60692649 69.10157137 -20.015625 48.890625 C-9.65969846 34.03910244 -2.73570819 17.89934786 0 0 Z " fill="#FCFCFC" transform="translate(199,112)"/>
<path d="M0 0 C29.04 0 58.08 0 88 0 C88 29.04 88 58.08 88 88 C87.67 88 87.34 88 87 88 C86.78085938 86.87464844 86.56171875 85.74929687 86.3359375 84.58984375 C80.972128 58.1419139 68.67497101 35.04766635 46.3359375 19.12890625 C31.65113109 9.75745486 17.10955157 4.04785534 0 1 C0 0.67 0 0.34 0 0 Z " fill="#FCFCFC" transform="translate(112,0)"/>
<path d="M0 0 C0.33 0 0.66 0 1 0 C1.14695313 0.90878906 1.29390625 1.81757812 1.4453125 2.75390625 C4.67500951 20.85134639 11.95770047 37.93378458 24 52 C24.65484375 52.79921875 25.3096875 53.5984375 25.984375 54.421875 C42.07159497 73.32729409 64.00974494 82.7264323 88 87 C88 87.33 88 87.66 88 88 C58.96 88 29.92 88 0 88 C0 58.96 0 29.92 0 0 Z " fill="#FCFCFC" transform="translate(0,112)"/>
<path d="M0 0 C29.04 0 58.08 0 88 0 C88 0.33 88 0.66 88 1 C87.1028125 1.14695313 86.205625 1.29390625 85.28125 1.4453125 C60.3377612 5.92895615 36.34936914 18.21931563 21 39 C10.35559425 54.39295801 4.01857987 69.57077553 1 88 C0.67 88 0.34 88 0 88 C0 58.96 0 29.92 0 0 Z " fill="#FDFDFD" transform="translate(0,0)"/>
<path d="M0 0 C6.1308745 3.17510366 10.53340466 7.685852 13.66796875 13.8125 C15.28724176 22.39464694 15.32065598 30.69404878 10.29296875 38.125 C5.88026626 42.99713641 0.58258666 46.62220295 -6.00390625 47.62890625 C-14.3685977 47.77084106 -20.37021453 46.85720302 -26.70703125 41.125 C-32.48351779 34.07272502 -34.18792861 28.91405355 -34.11328125 19.81640625 C-33.41058749 13.43135238 -30.61444243 8.7698063 -25.890625 4.47265625 C-24.08203125 3.125 -24.08203125 3.125 -20.70703125 1.125 C-20.11535156 0.76277344 -19.52367188 0.40054688 -18.9140625 0.02734375 C-13.25371884 -2.28688525 -5.74025502 -1.85543597 0 0 Z " fill="#030303" transform="translate(108.70703125,76.875)"/>
</svg>
